<svg width="87" height="26" viewBox="0 0 87 26" fill="none" xmlns="http://www.w3.org/2000/svg">
<path d="M17.964 21.536H8.532L7.02 26H0.576L9.72 0.727999H16.848L25.992 26H19.476L17.964 21.536ZM16.38 16.784L13.248 7.532L10.152 16.784H16.38ZM34.931 0.727999V26H28.775V0.727999H34.931ZM52.2802 26L47.0242 16.46H45.5482V26H39.3922V0.727999H49.7242C51.7162 0.727999 53.4082 1.076 54.8002 1.772C56.2162 2.468 57.2722 3.428 57.9682 4.652C58.6642 5.852 59.0122 7.196 59.0122 8.684C59.0122 10.364 58.5322 11.864 57.5722 13.184C56.6362 14.504 55.2442 15.44 53.3962 15.992L59.2282 26H52.2802ZM45.5482 12.104H49.3642C50.4922 12.104 51.3322 11.828 51.8842 11.276C52.4602 10.724 52.7482 9.944 52.7482 8.936C52.7482 7.976 52.4602 7.22 51.8842 6.668C51.3322 6.116 50.4922 5.84 49.3642 5.84H45.5482V12.104ZM78.6085 21.536H69.1765L67.6645 26H61.2205L70.3645 0.727999H77.4925L86.6365 26H80.1205L78.6085 21.536ZM77.0245 16.784L73.8925 7.532L70.7965 16.784H77.0245Z" fill="url(#paint0_linear_4_9)"/>
<defs>
<linearGradient id="paint0_linear_4_9" x1="6.55651e-07" y1="13" x2="88" y2="13" gradientUnits="userSpaceOnUse">
<stop stop-color="#1E5BB2"/>
<stop offset="1" stop-color="#5CBDE9"/>
</linearGradient>
</defs>
</svg>
