<svg width="11" height="11" viewBox="0 0 11 11" fill="none" xmlns="http://www.w3.org/2000/svg">
<g clip-path="url(#clip0_6_93)">
<path d="M7.86895 1.69534C7.89601 1.71477 7.89601 1.71477 7.92362 1.73459C8.31552 2.02239 8.66777 2.358 8.94831 2.75608C8.96393 2.77743 8.97956 2.79878 8.99519 2.82012C9.62647 3.70312 9.87812 4.86931 9.72025 5.93913C9.68543 6.14611 9.63661 6.35013 9.58103 6.55243C9.57653 6.56887 9.57204 6.5853 9.5674 6.60224C9.40795 7.16635 9.10621 7.69233 8.72499 8.13424C8.70419 8.15867 8.70419 8.15867 8.68298 8.1836C8.4764 8.41962 8.25326 8.63852 7.99922 8.82279C7.98923 8.83009 7.97924 8.8374 7.96894 8.84492C7.57468 9.13104 7.14297 9.34782 6.67794 9.49274C6.65744 9.49927 6.65744 9.49927 6.63652 9.50594C6.23575 9.63209 5.81972 9.68315 5.40086 9.68348C5.38649 9.6835 5.37212 9.68351 5.35731 9.68352C5.10561 9.68317 4.86041 9.66794 4.61228 9.623C4.59566 9.62001 4.57903 9.61701 4.5619 9.61392C4.11165 9.52914 3.60179 9.38786 3.22224 9.12273C3.14731 9.08641 3.07512 9.11236 2.9989 9.13631C2.93787 9.15752 2.87722 9.17959 2.81661 9.20196C2.7826 9.21434 2.7826 9.21434 2.74791 9.22696C2.68753 9.24894 2.62721 9.27106 2.56691 9.29322C2.50728 9.3151 2.4476 9.33686 2.38793 9.35862C2.36435 9.36723 2.34076 9.37584 2.31718 9.38445C2.27022 9.40158 2.22324 9.41868 2.17626 9.43576C2.06324 9.4769 1.95047 9.51854 1.83813 9.5615C1.81731 9.56933 1.79649 9.57717 1.77504 9.58523C1.73638 9.59978 1.69782 9.61458 1.65937 9.62969C1.51445 9.68372 1.36657 9.712 1.21953 9.64975C1.11085 9.58682 1.04406 9.49794 1.00203 9.38108C0.960866 9.17977 1.06485 8.97702 1.13346 8.79255C1.14688 8.75567 1.16026 8.71878 1.17362 8.68187C1.23542 8.5116 1.2986 8.34184 1.36214 8.17221C1.38833 8.10221 1.41437 8.03216 1.44041 7.9621C1.45884 7.91284 1.4776 7.86372 1.49639 7.8146C1.50765 7.78451 1.51891 7.75442 1.53015 7.72432C1.5354 7.71087 1.54066 7.69741 1.54608 7.68355C1.58108 7.58852 1.58465 7.52191 1.54519 7.42848C1.53922 7.41818 1.53325 7.40788 1.52709 7.39727C1.517 7.37929 1.517 7.37929 1.50669 7.36095C1.49944 7.34823 1.49219 7.33551 1.48471 7.3224C1.1507 6.71145 0.992721 6.0074 0.996213 5.31373C0.996253 5.29922 0.996294 5.28472 0.996335 5.26977C0.999301 4.59642 1.15713 3.95788 1.44866 3.35159C1.45493 3.33852 1.46121 3.32546 1.46768 3.312C1.615 3.01023 1.80464 2.72977 2.02555 2.47694C2.03776 2.46269 2.04997 2.44844 2.06256 2.43376C2.27147 2.19533 2.4955 1.97576 2.75133 1.78838C2.76752 1.77644 2.78371 1.76449 2.80039 1.75218C3.36749 1.3449 4.01812 1.08453 4.70533 0.969563C4.72418 0.966252 4.72418 0.966252 4.7434 0.962875C5.80175 0.784448 7.00006 1.06835 7.86895 1.69534Z" fill="white"/>
</g>
<defs>
<clipPath id="clip0_6_93">
<rect width="9.52809" height="9.52809" fill="white" transform="translate(0.611328 0.541565)"/>
</clipPath>
</defs>
</svg>
