<svg width="10" height="10" viewBox="0 0 10 10" fill="none" xmlns="http://www.w3.org/2000/svg">
<g clip-path="url(#clip0_100_8)">
<path d="M7.61505 1.15377C7.64211 1.1732 7.64211 1.1732 7.66971 1.19302C8.06161 1.48083 8.41387 1.81643 8.6944 2.21451C8.71002 2.23587 8.72565 2.25721 8.74129 2.27856C9.37256 3.16155 9.62421 4.32774 9.46635 5.39756C9.43153 5.60455 9.38271 5.80856 9.32713 6.01086C9.32263 6.0273 9.31813 6.04374 9.3135 6.06068C9.15405 6.62479 8.85231 7.15077 8.47109 7.59267C8.45029 7.61711 8.45029 7.61711 8.42907 7.64203C8.2225 7.87806 7.99935 8.09695 7.74531 8.28123C7.73532 8.28853 7.72533 8.29583 7.71504 8.30335C7.32077 8.58947 6.88907 8.80625 6.42404 8.95117C6.40353 8.95771 6.40353 8.95771 6.38261 8.96437C5.98184 9.09053 5.56582 9.14159 5.14695 9.14192C5.13258 9.14193 5.11821 9.14194 5.1034 9.14196C4.8517 9.14161 4.6065 9.12638 4.35838 9.08144C4.34175 9.07844 4.32513 9.07545 4.308 9.07236C3.85774 8.98757 3.34788 8.8463 2.96833 8.58116C2.89341 8.54484 2.82121 8.5708 2.74499 8.59474C2.68396 8.61595 2.62331 8.63803 2.5627 8.6604C2.52869 8.67277 2.52869 8.67277 2.494 8.6854C2.43363 8.70737 2.37331 8.7295 2.313 8.75166C2.25337 8.77354 2.1937 8.79529 2.13403 8.81705C2.11044 8.82566 2.08686 8.83427 2.06327 8.84288C2.01631 8.86002 1.96934 8.87712 1.92236 8.89419C1.80934 8.93534 1.69657 8.97697 1.58423 9.01994C1.56341 9.02777 1.54259 9.0356 1.52114 9.04367C1.48248 9.05822 1.44391 9.07302 1.40547 9.08813C1.26055 9.14215 1.11267 9.17043 0.965622 9.10819C0.85694 9.04526 0.790158 8.95637 0.748123 8.83951C0.70696 8.63821 0.810944 8.43546 0.879552 8.25099C0.892971 8.2141 0.906357 8.17721 0.919711 8.14031C0.981517 7.97004 1.04469 7.80028 1.10823 7.63065C1.13443 7.56065 1.16046 7.49059 1.1865 7.42054C1.20494 7.37128 1.22369 7.32215 1.24248 7.27303C1.25375 7.24294 1.265 7.21285 1.27624 7.18276C1.2815 7.1693 1.28676 7.15584 1.29217 7.14198C1.32718 7.04695 1.33074 6.98034 1.29128 6.88692C1.28531 6.87662 1.27934 6.86632 1.27319 6.85571C1.26309 6.83773 1.26309 6.83773 1.25279 6.81939C1.24553 6.80666 1.23828 6.79394 1.23081 6.78083C0.896799 6.16989 0.738815 5.46583 0.742307 4.77216C0.742347 4.75766 0.742387 4.74315 0.742429 4.7282C0.745395 4.05485 0.903223 3.41631 1.19475 2.81002C1.20103 2.79696 1.2073 2.7839 1.21377 2.77044C1.36109 2.46867 1.55073 2.1882 1.77165 1.93537C1.78386 1.92112 1.79607 1.90687 1.80865 1.89219C2.01756 1.65377 2.24159 1.43419 2.49742 1.24682C2.51361 1.23487 2.52981 1.22293 2.54649 1.21062C3.11358 0.803334 3.76421 0.542965 4.45142 0.427998C4.47027 0.424687 4.47027 0.424687 4.4895 0.42131C5.54784 0.242883 6.74615 0.526786 7.61505 1.15377Z" fill="#536AF5"/>
</g>
<defs>
<clipPath id="clip0_100_8">
<rect width="9.52809" height="9.52809" fill="white" transform="translate(0.357422)"/>
</clipPath>
</defs>
</svg>
