<svg width="10" height="10" viewBox="0 0 10 10" fill="none" xmlns="http://www.w3.org/2000/svg">
<g clip-path="url(#clip0_100_10)">
<path d="M3.82773 0.778988C3.84347 0.778932 3.85921 0.778877 3.87542 0.77882C3.9278 0.77866 3.98018 0.778631 4.03255 0.778603C4.07026 0.778516 4.10796 0.778423 4.14567 0.778323C4.24787 0.778079 4.35008 0.777959 4.45228 0.777876C4.51624 0.777821 4.5802 0.777745 4.64416 0.777662C4.84456 0.777407 5.04497 0.777228 5.24537 0.777156C5.47615 0.777072 5.70693 0.776746 5.93771 0.776206C6.11646 0.775803 6.29521 0.775616 6.47397 0.775592C6.58055 0.775572 6.68714 0.775464 6.79373 0.77513C6.8941 0.774821 6.99447 0.774784 7.09484 0.774946C7.13148 0.77496 7.16812 0.774881 7.20477 0.774696C7.65705 0.772546 8.04327 0.862107 8.38388 1.18163C8.65852 1.4665 8.78539 1.81319 8.785 2.20472C8.78508 2.23081 8.78508 2.23081 8.78516 2.25743C8.78533 2.31552 8.78535 2.37361 8.78538 2.43171C8.78547 2.47344 8.78556 2.51518 8.78566 2.55691C8.78591 2.67019 8.78603 2.78347 8.78611 2.89675C8.78616 2.96761 8.78624 3.03846 8.78632 3.10932C8.78655 3.30584 8.78674 3.50236 8.7868 3.69888C8.78681 3.71144 8.78681 3.72401 8.78682 3.73695C8.78682 3.74954 8.78683 3.76213 8.78683 3.7751C8.78684 3.80061 8.78685 3.82612 8.78685 3.85163C8.78686 3.86429 8.78686 3.87694 8.78687 3.88998C8.78694 4.09472 8.78726 4.29946 8.7877 4.5042C8.78814 4.71485 8.78837 4.9255 8.78839 5.13616C8.78841 5.25425 8.78852 5.37234 8.78886 5.49043C8.78916 5.60163 8.7892 5.71283 8.78904 5.82403C8.78902 5.86466 8.7891 5.9053 8.78929 5.94593C8.79132 6.42133 8.70645 6.8132 8.36927 7.17136C8.08259 7.44165 7.73061 7.56028 7.34131 7.55664C7.32414 7.55656 7.30698 7.55647 7.28929 7.55639C7.24731 7.55617 7.20533 7.55586 7.16335 7.55548C7.16294 7.5726 7.16294 7.5726 7.16253 7.59006C7.15104 7.90416 6.95198 8.19606 6.73104 8.40512C6.4536 8.63991 6.13448 8.74951 5.77215 8.7491C5.74854 8.74919 5.74854 8.74919 5.72446 8.74927C5.67208 8.74943 5.6197 8.74946 5.56732 8.74949C5.52962 8.74957 5.49192 8.74967 5.45421 8.74977C5.35201 8.75001 5.2498 8.75013 5.1476 8.75021C5.08364 8.75027 5.01968 8.75035 4.95572 8.75043C4.75532 8.75068 4.55491 8.75086 4.35451 8.75093C4.12373 8.75102 3.89295 8.75134 3.66217 8.75188C3.48342 8.75229 3.30467 8.75247 3.12591 8.7525C3.01933 8.75252 2.91274 8.75263 2.80615 8.75296C2.70578 8.75327 2.60541 8.75331 2.50504 8.75314C2.4684 8.75313 2.43175 8.75321 2.39511 8.75339C1.94283 8.75554 1.55662 8.66598 1.216 8.34646C0.946881 8.06732 0.814456 7.72326 0.814883 7.33821C0.814827 7.32241 0.814772 7.30661 0.814715 7.29034C0.814554 7.23764 0.814526 7.18495 0.814498 7.13226C0.814411 7.09437 0.814318 7.05649 0.814218 7.0186C0.813974 6.91582 0.813853 6.81303 0.813771 6.71025C0.813716 6.64594 0.81364 6.58163 0.813557 6.51732C0.813302 6.31584 0.813123 6.11437 0.813051 5.91289C0.812967 5.68082 0.812641 5.44876 0.812101 5.2167C0.811698 5.037 0.811511 4.8573 0.811487 4.67759C0.811467 4.57042 0.811359 4.46326 0.811025 4.35609C0.810716 4.25515 0.810679 4.15422 0.810841 4.05328C0.810855 4.01643 0.810776 3.97957 0.810591 3.94272C0.808659 3.53389 0.869932 3.19363 1.13386 2.86587C1.14259 2.85409 1.15132 2.84231 1.16032 2.83018C1.33285 2.60842 1.63033 2.45143 1.90172 2.38987C2.07261 2.37059 2.24624 2.37796 2.41792 2.38202C2.41733 2.36392 2.41733 2.36392 2.41674 2.34545C2.40428 1.90038 2.47742 1.54489 2.77731 1.20431C3.0629 0.915826 3.42597 0.778539 3.82773 0.778988ZM3.34839 1.80513C3.24344 1.94079 3.21179 2.07273 3.2158 2.24129C3.21597 2.2549 3.21614 2.26852 3.21631 2.28254C3.21674 2.3157 3.21741 2.34886 3.21813 2.38202C3.23247 2.38205 3.2468 2.38208 3.26158 2.38211C3.61141 2.3828 3.96123 2.3839 4.31106 2.38544C4.48024 2.38618 4.64942 2.38679 4.81859 2.38707C4.96615 2.38731 5.11371 2.38781 5.26127 2.38862C5.3393 2.38904 5.41734 2.38933 5.49538 2.38932C5.56904 2.3893 5.64268 2.38964 5.71634 2.39023C5.74318 2.39039 5.77002 2.39042 5.79685 2.39032C6.14718 2.38913 6.47131 2.50029 6.73533 2.7356C6.74788 2.74642 6.76043 2.75724 6.77335 2.76839C6.99187 2.97 7.14709 3.28811 7.16822 3.5858C7.16833 3.60941 7.16843 3.63301 7.16854 3.65733C7.16864 3.67061 7.16875 3.68388 7.16886 3.69756C7.16918 3.74159 7.16923 3.78561 7.16929 3.82964C7.16946 3.86138 7.16965 3.89312 7.16985 3.92486C7.17036 4.01071 7.17064 4.09655 7.17088 4.1824C7.17118 4.27224 7.17167 4.36207 7.17215 4.4519C7.17302 4.62187 7.1737 4.79184 7.17432 4.96181C7.17503 5.15538 7.17595 5.34895 7.17689 5.54251C7.17881 5.94056 7.18047 6.33861 7.18196 6.73666C7.23559 6.73748 7.2892 6.73808 7.34283 6.73855C7.36547 6.73893 7.36547 6.73893 7.38856 6.73932C7.55461 6.74041 7.68219 6.69677 7.8048 6.58226C7.93003 6.44298 7.9692 6.30047 7.96854 6.11677C7.96867 6.09084 7.96867 6.09084 7.9688 6.06438C7.96903 6.00652 7.969 5.94867 7.96897 5.89081C7.96908 5.8493 7.96921 5.80778 7.96935 5.76626C7.96968 5.65353 7.96976 5.54079 7.96979 5.42805C7.96982 5.3576 7.96989 5.28714 7.96999 5.21668C7.97032 4.98348 7.97049 4.75029 7.97046 4.5171C7.97046 4.49825 7.97046 4.49825 7.97046 4.47903C7.97046 4.46017 7.97046 4.46017 7.97046 4.44092C7.97044 4.2372 7.9708 4.03348 7.97132 3.82975C7.97186 3.62034 7.97211 3.41093 7.97208 3.20152C7.97207 3.08404 7.97218 2.96657 7.97257 2.8491C7.97293 2.73857 7.97293 2.62804 7.97266 2.51752C7.97263 2.47702 7.97271 2.43653 7.97294 2.39603C7.97323 2.3406 7.97305 2.28519 7.97277 2.22976C7.97296 2.21387 7.97315 2.19798 7.97335 2.1816C7.97153 2.02171 7.91912 1.87692 7.80916 1.75918C7.67581 1.63929 7.53756 1.59473 7.35922 1.59544C7.3436 1.59536 7.32799 1.59528 7.31189 1.59519C7.2597 1.59495 7.2075 1.59498 7.1553 1.59501C7.11782 1.5949 7.08034 1.59478 7.04285 1.59464C6.94111 1.59431 6.83937 1.59422 6.73763 1.5942C6.67403 1.59417 6.61043 1.59409 6.54683 1.59399C6.32484 1.59365 6.10285 1.5935 5.88086 1.59352C5.67411 1.59355 5.46737 1.59315 5.26062 1.59257C5.08298 1.59208 4.90534 1.59188 4.72769 1.5919C4.62166 1.59191 4.51563 1.59181 4.40959 1.59141C4.30982 1.59105 4.21005 1.59105 4.11027 1.59132C4.07374 1.59136 4.0372 1.59127 4.00067 1.59105C3.74077 1.58955 3.5339 1.60185 3.34839 1.80513Z" fill="#536AF5"/>
</g>
<defs>
<clipPath id="clip0_100_10">
<rect width="9.52809" height="9.52809" fill="white" transform="translate(0.0358887)"/>
</clipPath>
</defs>
</svg>
