<svg width="10" height="11" viewBox="0 0 10 11" fill="none" xmlns="http://www.w3.org/2000/svg">
<g clip-path="url(#clip0_6_95)">
<path d="M4.08164 1.32055C4.09738 1.3205 4.11311 1.32044 4.12933 1.32039C4.1817 1.32022 4.23408 1.3202 4.28646 1.32017C4.32417 1.32008 4.36187 1.31999 4.39957 1.31989C4.50178 1.31964 4.60399 1.31952 4.70619 1.31944C4.77015 1.31939 4.8341 1.31931 4.89806 1.31923C5.09847 1.31897 5.29887 1.31879 5.49928 1.31872C5.73006 1.31864 5.96084 1.31831 6.19161 1.31777C6.37037 1.31737 6.54912 1.31718 6.72787 1.31716C6.83446 1.31714 6.94105 1.31703 7.04763 1.31669C7.148 1.31639 7.24837 1.31635 7.34874 1.31651C7.38539 1.31653 7.42203 1.31645 7.45867 1.31626C7.91096 1.31411 8.29717 1.40367 8.63778 1.7232C8.91243 2.00806 9.0393 2.35475 9.0389 2.74629C9.03899 2.77237 9.03899 2.77237 9.03907 2.79899C9.03923 2.85709 9.03926 2.91518 9.03929 2.97327C9.03937 3.01501 9.03947 3.05674 9.03957 3.09848C9.03981 3.21176 9.03993 3.32504 9.04002 3.43832C9.04007 3.50917 9.04015 3.58003 9.04023 3.65088C9.04045 3.84741 9.04065 4.04393 9.04071 4.24045C9.04071 4.25301 9.04072 4.26557 9.04072 4.27851C9.04073 4.2911 9.04073 4.30369 9.04074 4.31667C9.04074 4.34218 9.04075 4.36769 9.04076 4.3932C9.04076 4.40585 9.04077 4.4185 9.04077 4.43154C9.04085 4.63628 9.04117 4.84102 9.0416 5.04576C9.04205 5.25642 9.04227 5.46707 9.0423 5.67772C9.04232 5.79581 9.04243 5.9139 9.04276 6.032C9.04307 6.1432 9.04311 6.25439 9.04294 6.36559C9.04293 6.40623 9.04301 6.44686 9.0432 6.4875C9.04523 6.9629 8.96036 7.35476 8.62317 7.71293C8.33649 7.98322 7.98452 8.10185 7.59521 8.09821C7.57805 8.09812 7.56088 8.09804 7.5432 8.09795C7.50122 8.09773 7.45924 8.09743 7.41726 8.09704C7.41685 8.11416 7.41685 8.11416 7.41643 8.13163C7.40495 8.44573 7.20589 8.73763 6.98495 8.94668C6.70751 9.18147 6.38839 9.29107 6.02605 9.29067C6.00245 9.29075 6.00245 9.29075 5.97837 9.29083C5.92599 9.291 5.87361 9.29102 5.82123 9.29105C5.78353 9.29114 5.74582 9.29123 5.70812 9.29133C5.60591 9.29158 5.50371 9.2917 5.4015 9.29178C5.33754 9.29183 5.27359 9.29191 5.20963 9.29199C5.00922 9.29225 4.80882 9.29243 4.60841 9.2925C4.37763 9.29258 4.14686 9.29291 3.91608 9.29345C3.73733 9.29385 3.55857 9.29404 3.37982 9.29406C3.27323 9.29408 3.16665 9.29419 3.06006 9.29453C2.95969 9.29483 2.85932 9.29487 2.75895 9.29471C2.72231 9.29469 2.68566 9.29477 2.64902 9.29496C2.19673 9.29711 1.81052 9.20755 1.46991 8.88802C1.20079 8.60888 1.06836 8.26482 1.06879 7.87977C1.06873 7.86397 1.06868 7.84818 1.06862 7.8319C1.06846 7.77921 1.06843 7.72651 1.0684 7.67382C1.06832 7.63594 1.06822 7.59805 1.06812 7.56017C1.06788 7.45738 1.06776 7.3546 1.06768 7.25182C1.06762 7.18751 1.06755 7.1232 1.06746 7.05889C1.06721 6.85741 1.06703 6.65593 1.06696 6.45445C1.06687 6.22239 1.06655 5.99032 1.06601 5.75826C1.0656 5.57856 1.06542 5.39886 1.06539 5.21916C1.06537 5.11199 1.06527 5.00482 1.06493 4.89765C1.06462 4.79671 1.06458 4.69578 1.06475 4.59485C1.06476 4.55799 1.06468 4.52114 1.0645 4.48428C1.06257 4.07546 1.12384 3.7352 1.38776 3.40744C1.3965 3.39566 1.40523 3.38388 1.41423 3.37174C1.58676 3.14999 1.88424 2.993 2.15563 2.93144C2.32652 2.91215 2.50015 2.91953 2.67182 2.92359C2.67124 2.90549 2.67124 2.90549 2.67064 2.88702C2.65819 2.44194 2.73133 2.08646 3.03122 1.74588C3.3168 1.45739 3.67987 1.3201 4.08164 1.32055ZM3.6023 2.34669C3.49735 2.48235 3.4657 2.6143 3.46971 2.78285C3.46988 2.79647 3.47004 2.81008 3.47022 2.82411C3.47065 2.85727 3.47132 2.89043 3.47203 2.92359C3.48637 2.92361 3.50071 2.92364 3.51548 2.92367C3.86531 2.92436 4.21514 2.92546 4.56497 2.92701C4.73414 2.92775 4.90332 2.92835 5.0725 2.92863C5.22006 2.92887 5.36762 2.92938 5.51517 2.93019C5.59321 2.93061 5.67125 2.9309 5.74928 2.93088C5.82294 2.93087 5.89659 2.9312 5.97025 2.9318C5.99708 2.93195 6.02392 2.93199 6.05076 2.93188C6.40108 2.93069 6.72521 3.04185 6.98924 3.27717C7.00179 3.28799 7.01433 3.29881 7.02726 3.30995C7.24578 3.51157 7.40099 3.82967 7.42213 4.12737C7.42223 4.15097 7.42234 4.17458 7.42244 4.1989C7.42255 4.21217 7.42266 4.22544 7.42277 4.23912C7.42308 4.28315 7.42314 4.32718 7.42319 4.37121C7.42337 4.40295 7.42355 4.43469 7.42376 4.46643C7.42427 4.55227 7.42455 4.63812 7.42479 4.72397C7.42508 4.8138 7.42558 4.90363 7.42606 4.99347C7.42693 5.16344 7.42761 5.33341 7.42823 5.50338C7.42894 5.69695 7.42986 5.89051 7.4308 6.08408C7.43272 6.48213 7.43438 6.88017 7.43587 7.27822C7.4895 7.27904 7.54311 7.27964 7.59674 7.28011C7.61937 7.28049 7.61937 7.28049 7.64247 7.28088C7.80852 7.28198 7.9361 7.23834 8.05871 7.12382C8.18393 6.98454 8.22311 6.84204 8.22245 6.65834C8.22257 6.6324 8.22257 6.6324 8.2227 6.60594C8.22294 6.54809 8.22291 6.49023 8.22288 6.43238C8.22299 6.39086 8.22311 6.34934 8.22326 6.30783C8.22358 6.19509 8.22367 6.08236 8.22369 5.96962C8.22372 5.89916 8.2238 5.8287 8.2239 5.75824C8.22423 5.52505 8.2244 5.29186 8.22437 5.05866C8.22437 5.03982 8.22437 5.03982 8.22437 5.0206C8.22436 5.00173 8.22436 5.00173 8.22436 4.98248C8.22435 4.77876 8.2247 4.57504 8.22523 4.37132C8.22576 4.16191 8.22601 3.9525 8.22599 3.74308C8.22598 3.62561 8.22608 3.50814 8.22648 3.39066C8.22684 3.28013 8.22684 3.16961 8.22657 3.05908C8.22653 3.01859 8.22662 2.97809 8.22684 2.9376C8.22713 2.88217 8.22696 2.82675 8.22667 2.77132C8.22686 2.75543 8.22705 2.73954 8.22725 2.72317C8.22544 2.56328 8.17303 2.41848 8.06307 2.30075C7.92972 2.18085 7.79147 2.1363 7.61313 2.13701C7.59751 2.13693 7.58189 2.13684 7.5658 2.13675C7.5136 2.13652 7.46141 2.13655 7.40921 2.13658C7.37173 2.13647 7.33424 2.13634 7.29676 2.1362C7.19502 2.13587 7.09328 2.13578 6.99154 2.13576C6.92794 2.13573 6.86434 2.13566 6.80074 2.13556C6.57875 2.13521 6.35675 2.13506 6.13476 2.13509C5.92802 2.13511 5.72127 2.13472 5.51453 2.13413C5.33688 2.13364 5.15924 2.13345 4.9816 2.13347C4.87556 2.13348 4.76953 2.13337 4.6635 2.13298C4.56372 2.13262 4.46395 2.13262 4.36418 2.13289C4.32764 2.13292 4.29111 2.13284 4.25458 2.13261C3.99468 2.13111 3.78781 2.14342 3.6023 2.34669Z" fill="white"/>
</g>
<defs>
<clipPath id="clip0_6_95">
<rect width="9.52809" height="9.52809" fill="white" transform="translate(0.289795 0.541565)"/>
</clipPath>
</defs>
</svg>
