<svg width="11" height="11" viewBox="0 0 11 11" fill="none" xmlns="http://www.w3.org/2000/svg">
<g clip-path="url(#clip0_6_87)">
<path d="M3.06603 0.830077C3.099 0.830074 3.13197 0.830046 3.16494 0.829995C3.23387 0.829969 3.30279 0.8302 3.37172 0.830627C3.45778 0.831147 3.54384 0.831101 3.62991 0.830874C4.88048 0.828253 6.15783 0.982852 7.31715 1.47603C7.33324 1.48284 7.34933 1.48966 7.36591 1.49667C7.40504 1.51324 7.44415 1.52984 7.48325 1.54647C7.48879 2.17661 7.49305 2.80673 7.4956 3.43689C7.49591 3.51131 7.49622 3.58573 7.49654 3.66015C7.4966 3.67497 7.49667 3.68978 7.49673 3.70505C7.49778 3.94484 7.49969 4.18461 7.50192 4.4244C7.50418 4.6705 7.50552 4.91659 7.50601 5.16271C7.50634 5.31454 7.50739 5.46633 7.50936 5.61815C7.51079 5.73464 7.51094 5.8511 7.51061 5.9676C7.51068 6.01533 7.51116 6.06307 7.51209 6.1108C7.51859 6.46271 7.51859 6.46271 7.45967 6.55026C7.39619 6.61366 7.32306 6.64667 7.24133 6.68271C7.20997 6.70538 7.17917 6.72888 7.14944 6.75366C7.13466 6.76575 7.11989 6.77784 7.10466 6.79029C7.08835 6.80392 7.07204 6.81755 7.05523 6.83158C7.04532 6.83981 7.03542 6.84804 7.02521 6.85652C6.65058 7.16856 6.31802 7.52358 6.12592 7.9784C6.12088 7.99015 6.11585 8.0019 6.11067 8.014C6.01614 8.25179 6.00306 8.49504 5.99449 8.7472C5.97026 9.45822 5.97026 9.45822 5.76594 9.67005C5.61986 9.79521 5.4405 9.78978 5.25705 9.77684C4.963 9.74387 4.71002 9.56642 4.50572 9.36248C4.49411 9.35109 4.4825 9.33969 4.47054 9.32795C4.16049 9.00045 4.08852 8.56274 4.0905 8.1296C4.09056 8.10606 4.09056 8.10606 4.09062 8.08205C4.0925 7.62306 4.15588 7.18402 4.31229 6.75039C4.31659 6.73845 4.32089 6.72651 4.32531 6.71421C4.33579 6.68509 4.34632 6.65598 4.35685 6.62688C4.33284 6.62677 4.30883 6.62666 4.28409 6.62655C4.0566 6.62548 3.82913 6.62412 3.60165 6.62249C3.48473 6.62166 3.36781 6.62093 3.25089 6.62043C3.13783 6.61994 3.02477 6.61919 2.91171 6.61826C2.86881 6.61795 2.8259 6.61774 2.783 6.61762C2.23743 6.61598 1.77597 6.52296 1.37052 6.13656C1.03855 5.78817 0.920023 5.37813 0.925995 4.90855C0.933979 4.66329 0.980559 4.42222 1.02357 4.18118C1.03659 4.10776 1.04917 4.03428 1.06181 3.9608C1.08305 3.83778 1.10459 3.71481 1.12635 3.59188C1.15135 3.45059 1.17592 3.30922 1.20023 3.16781C1.22387 3.03039 1.24776 2.89302 1.27177 2.75567C1.2819 2.69779 1.29194 2.6399 1.30193 2.58199C1.31372 2.51375 1.32573 2.44555 1.3379 2.37737C1.34435 2.34099 1.35059 2.30456 1.35683 2.26814C1.44075 1.80333 1.6451 1.38143 2.03923 1.1045C2.11002 1.05791 2.18365 1.01833 2.25978 0.981207C2.27143 0.975441 2.28308 0.969674 2.29509 0.963733C2.54522 0.849615 2.7959 0.828091 3.06603 0.830077Z" fill="white"/>
<path d="M8.75827 0.929066C8.77029 0.928944 8.78232 0.928821 8.79471 0.928695C8.8344 0.928329 8.87409 0.928111 8.91379 0.927926C8.93425 0.927812 8.93425 0.927812 8.95512 0.927696C9.02739 0.927308 9.09966 0.927042 9.17193 0.926867C9.24609 0.926662 9.32025 0.926022 9.39441 0.925282C9.45184 0.924792 9.50927 0.924639 9.5667 0.924573C9.59401 0.924483 9.62132 0.924269 9.64863 0.923921C9.88345 0.921116 10.0783 0.955617 10.2559 1.11846C10.3634 1.22441 10.4538 1.35776 10.4631 1.51241C10.4631 1.52713 10.4631 1.54184 10.4632 1.55701C10.4633 1.57407 10.4634 1.59113 10.4635 1.6087C10.4635 1.62738 10.4635 1.64605 10.4635 1.66529C10.4636 1.69513 10.4636 1.69513 10.4637 1.72557C10.464 1.79246 10.4641 1.85934 10.4642 1.92623C10.4644 1.97409 10.4645 2.02196 10.4647 2.06983C10.4651 2.21365 10.4654 2.35748 10.4657 2.5013C10.4657 2.54195 10.4658 2.5826 10.4659 2.62324C10.4663 2.87583 10.4668 3.12841 10.467 3.381C10.467 3.43948 10.4671 3.49797 10.4672 3.55646C10.4672 3.571 10.4672 3.58553 10.4672 3.60051C10.4674 3.8358 10.468 4.07109 10.4688 4.30637C10.4696 4.54813 10.4701 4.78988 10.4701 5.03163C10.4702 5.16729 10.4704 5.30295 10.471 5.43861C10.4716 5.5663 10.4717 5.69399 10.4715 5.82169C10.4715 5.86847 10.4717 5.91525 10.472 5.96203C10.4755 6.49911 10.4755 6.49911 10.2655 6.71913C10.1151 6.84126 9.94159 6.90782 9.74819 6.90902C9.71333 6.90929 9.71333 6.90929 9.67777 6.90957C9.65253 6.90966 9.62729 6.90974 9.60205 6.90981C9.58923 6.90986 9.57641 6.90991 9.5632 6.90997C9.49529 6.91024 9.42739 6.91042 9.35948 6.9105C9.2898 6.9106 9.22013 6.91104 9.15045 6.91157C9.09647 6.91192 9.04249 6.91202 8.9885 6.91205C8.96284 6.9121 8.93718 6.91225 8.91152 6.9125C8.66257 6.91472 8.45667 6.87311 8.26456 6.70605C8.04152 6.47383 8.06535 6.19534 8.06687 5.89467C8.06677 5.84672 8.06664 5.79877 8.06647 5.75082C8.06613 5.6345 8.06628 5.51819 8.06662 5.40188C8.06688 5.3073 8.06695 5.21273 8.06689 5.11815C8.06688 5.10465 8.06687 5.09115 8.06686 5.07724C8.06684 5.04981 8.06682 5.02238 8.0668 4.99495C8.06664 4.75285 8.06695 4.51075 8.06751 4.26865C8.06804 4.03406 8.06817 3.79947 8.06789 3.56488C8.06757 3.30899 8.0675 3.05309 8.06783 2.7972C8.06786 2.76988 8.06789 2.74257 8.06793 2.71525C8.06795 2.70182 8.06796 2.68838 8.06798 2.67454C8.06808 2.58012 8.06802 2.48571 8.0679 2.39129C8.06774 2.26411 8.06798 2.13694 8.06849 2.00976C8.06862 1.96315 8.06862 1.91653 8.06849 1.86991C8.06833 1.80618 8.06862 1.74246 8.06904 1.67872C8.06888 1.66037 8.06873 1.64202 8.06857 1.62312C8.07104 1.41549 8.15233 1.25377 8.29495 1.10566C8.42701 0.983381 8.58062 0.930566 8.75827 0.929066Z" fill="white"/>
</g>
<defs>
<clipPath id="clip0_6_87">
<rect width="9.52809" height="9.52809" fill="white" transform="translate(0.932617 0.541565)"/>
</clipPath>
</defs>
</svg>
