<svg width="11" height="10" viewBox="0 0 11 10" fill="none" xmlns="http://www.w3.org/2000/svg">
<g clip-path="url(#clip0_100_2)">
<path d="M2.81212 0.288512C2.84509 0.288509 2.87807 0.288481 2.91104 0.28843C2.97996 0.288404 3.04888 0.288635 3.11781 0.289062C3.20388 0.289582 3.28993 0.289536 3.376 0.289309C4.62657 0.286688 5.90393 0.441287 7.06324 0.934467C7.07933 0.941279 7.09542 0.948091 7.11201 0.95511C7.15113 0.971677 7.19024 0.988277 7.22934 1.00491C7.23488 1.63504 7.23915 2.26517 7.2417 2.89532C7.242 2.96974 7.24231 3.04416 7.24263 3.11859C7.2427 3.1334 7.24276 3.14822 7.24283 3.16348C7.24388 3.40327 7.24579 3.64305 7.24801 3.88283C7.25027 4.12893 7.25162 4.37503 7.25211 4.62114C7.25244 4.77297 7.25349 4.92477 7.25545 5.07659C7.25688 5.19308 7.25703 5.30953 7.25671 5.42603C7.25677 5.47377 7.25726 5.52151 7.25818 5.56923C7.26469 5.92114 7.26469 5.92114 7.20576 6.00869C7.14229 6.07209 7.06915 6.10511 6.98742 6.14114C6.95606 6.16381 6.92526 6.18732 6.89554 6.21209C6.88076 6.22418 6.86598 6.23627 6.85076 6.24873C6.83444 6.26235 6.81813 6.27598 6.80132 6.29002C6.79142 6.29825 6.78151 6.30648 6.7713 6.31495C6.39668 6.627 6.06411 6.98202 5.87201 7.43683C5.86698 7.44858 5.86195 7.46033 5.85676 7.47244C5.76224 7.71022 5.74915 7.95348 5.74058 8.20564C5.71635 8.91665 5.71635 8.91665 5.51203 9.12848C5.36595 9.25365 5.1866 9.24821 5.00314 9.23528C4.70909 9.20231 4.45612 9.02486 4.25182 8.82092C4.24021 8.80952 4.22859 8.79813 4.21663 8.78639C3.90659 8.45889 3.83461 8.02118 3.83659 7.58804C3.83665 7.5645 3.83665 7.5645 3.83671 7.54049C3.83859 7.0815 3.90197 6.64245 4.05839 6.20883C4.06268 6.19689 4.06698 6.18495 4.0714 6.17265C4.08189 6.14353 4.09241 6.11442 4.10294 6.08531C4.07893 6.0852 4.05492 6.0851 4.03018 6.08498C3.8027 6.08391 3.57522 6.08256 3.34774 6.08093C3.23082 6.0801 3.11391 6.07937 2.99698 6.07887C2.88392 6.07838 2.77086 6.07762 2.6578 6.07669C2.6149 6.07639 2.572 6.07617 2.5291 6.07605C1.98353 6.07442 1.52207 5.9814 1.11662 5.595C0.784645 5.24661 0.666117 4.83657 0.672089 4.36698C0.680072 4.12173 0.726652 3.88065 0.769664 3.63961C0.782683 3.5662 0.795262 3.49271 0.807906 3.41924C0.829141 3.29621 0.850686 3.17325 0.872443 3.05032C0.897447 2.90902 0.92201 2.76766 0.946328 2.62624C0.969964 2.48882 0.99385 2.35145 1.01787 2.2141C1.02799 2.15622 1.03804 2.09833 1.04802 2.04043C1.05981 1.97219 1.07182 1.90398 1.08399 1.83581C1.09044 1.79942 1.09669 1.763 1.10292 1.72657C1.18684 1.26176 1.39119 0.839865 1.78532 0.56293C1.85612 0.51635 1.92975 0.476766 2.00588 0.439642C2.01753 0.433876 2.02918 0.428109 2.04118 0.422168C2.29132 0.30805 2.54199 0.286526 2.81212 0.288512Z" fill="#536AF5"/>
<path d="M8.50436 0.387501C8.51639 0.387379 8.52841 0.387256 8.5408 0.38713C8.58049 0.386764 8.62019 0.386546 8.65988 0.386361C8.68034 0.386247 8.68034 0.386247 8.70121 0.386131C8.77348 0.385743 8.84575 0.385477 8.91802 0.385302C8.99219 0.385097 9.06634 0.384457 9.14051 0.383717C9.19794 0.383227 9.25536 0.383074 9.3128 0.383008C9.3401 0.382918 9.36741 0.382704 9.39472 0.382356C9.62955 0.379551 9.82435 0.414052 10.002 0.57689C10.1095 0.682843 10.1999 0.816192 10.2091 0.970842C10.2092 0.985561 10.2092 1.00028 10.2093 1.01544C10.2094 1.0325 10.2095 1.04956 10.2096 1.06714C10.2096 1.08581 10.2096 1.10449 10.2096 1.12373C10.2097 1.15357 10.2097 1.15357 10.2098 1.18401C10.2101 1.25089 10.2102 1.31778 10.2103 1.38466C10.2105 1.43253 10.2106 1.4804 10.2108 1.52826C10.2112 1.67209 10.2115 1.81591 10.2117 1.95974C10.2118 2.00038 10.2119 2.04103 10.212 2.08168C10.2124 2.33426 10.2128 2.58685 10.2131 2.83943C10.2131 2.89792 10.2132 2.95641 10.2132 3.0149C10.2133 3.02943 10.2133 3.04397 10.2133 3.05895C10.2135 3.29423 10.2141 3.52952 10.2149 3.76481C10.2157 4.00656 10.2161 4.24831 10.2162 4.49007C10.2163 4.62573 10.2165 4.76138 10.2171 4.89704C10.2177 5.02474 10.2178 5.15243 10.2176 5.28012C10.2176 5.32691 10.2177 5.37369 10.2181 5.42047C10.2216 5.95754 10.2216 5.95754 10.0116 6.17757C9.86123 6.2997 9.68768 6.36625 9.49428 6.36746C9.45943 6.36773 9.45943 6.36773 9.42387 6.368C9.39863 6.36809 9.37339 6.36817 9.34815 6.36824C9.33532 6.36829 9.3225 6.36835 9.30929 6.3684C9.24138 6.36868 9.17348 6.36885 9.10557 6.36893C9.03589 6.36903 8.96622 6.36948 8.89654 6.37001C8.84256 6.37036 8.78858 6.37045 8.7346 6.37048C8.70894 6.37054 8.68328 6.37069 8.65762 6.37093C8.40866 6.37315 8.20276 6.33154 8.01066 6.16448C7.78762 5.93227 7.81144 5.65377 7.81296 5.3531C7.81287 5.30515 7.81273 5.2572 7.81256 5.20925C7.81222 5.09294 7.81237 4.97663 7.81271 4.86031C7.81297 4.76574 7.81304 4.67116 7.81298 4.57658C7.81297 4.56309 7.81296 4.54959 7.81295 4.53568C7.81293 4.50825 7.81292 4.48082 7.8129 4.45339C7.81274 4.21128 7.81305 3.96919 7.8136 3.72708C7.81414 3.49249 7.81427 3.25791 7.81398 3.02332C7.81367 2.76742 7.81359 2.51153 7.81392 2.25563C7.81395 2.22832 7.81399 2.201 7.81402 2.17369C7.81404 2.16025 7.81406 2.14682 7.81407 2.13297C7.81418 2.03856 7.81412 1.94414 7.81399 1.84973C7.81383 1.72255 7.81408 1.59538 7.81459 1.4682C7.81471 1.42158 7.81472 1.37497 7.81458 1.32835C7.81442 1.26461 7.81472 1.20089 7.81513 1.13715C7.81498 1.11881 7.81482 1.10046 7.81467 1.08155C7.81714 0.873925 7.89842 0.712205 8.04104 0.564096C8.17311 0.441816 8.32672 0.389001 8.50436 0.387501Z" fill="#536AF5"/>
</g>
<defs>
<clipPath id="clip0_100_2">
<rect width="9.52809" height="9.52809" fill="white" transform="translate(0.678711)"/>
</clipPath>
</defs>
</svg>
