<svg width="10" height="11" viewBox="0 0 10 11" fill="none" xmlns="http://www.w3.org/2000/svg">
<g clip-path="url(#clip0_6_90)">
<path d="M5.90767 1.00213C6.01823 1.0743 6.11556 1.15552 6.20891 1.2487C6.22052 1.2601 6.23213 1.27149 6.2441 1.28323C6.55414 1.61073 6.62612 2.04844 6.62414 2.48159C6.62408 2.50512 6.62408 2.50512 6.62402 2.52913C6.62214 2.98812 6.55876 3.42717 6.40234 3.8608C6.39805 3.87273 6.39375 3.88467 6.38932 3.89697C6.37884 3.92609 6.36832 3.9552 6.35779 3.98431C6.3938 3.98447 6.3938 3.98447 6.43055 3.98464C6.65803 3.98571 6.88551 3.98706 7.11299 3.98869C7.22991 3.98952 7.34682 3.99025 7.46374 3.99075C7.57681 3.99124 7.68987 3.992 7.80293 3.99293C7.84583 3.99323 7.88873 3.99345 7.93163 3.99357C8.4772 3.99521 8.93866 4.08822 9.34411 4.47462C9.67608 4.82301 9.79461 5.23306 9.78864 5.70264C9.78066 5.94789 9.73408 6.18897 9.69106 6.43001C9.67805 6.50342 9.66547 6.57691 9.65282 6.65038C9.63159 6.77341 9.61004 6.89637 9.58829 7.0193C9.56328 7.1606 9.53872 7.30196 9.5144 7.44338C9.49076 7.5808 9.46688 7.71817 9.44286 7.85552C9.43274 7.9134 9.42269 7.97129 9.41271 8.02919C9.40092 8.09743 9.38891 8.16564 9.37673 8.23381C9.37029 8.2702 9.36404 8.30662 9.35781 8.34305C9.27489 8.80228 9.07789 9.21893 8.68754 9.49222C8.49522 9.6144 8.31197 9.70216 8.08848 9.75327C8.07492 9.75654 8.06135 9.75981 8.04738 9.76319C7.98221 9.77409 7.91817 9.77477 7.8523 9.77487C7.83814 9.77497 7.82399 9.77506 7.8094 9.77515C7.76247 9.77543 7.71553 9.77555 7.6686 9.77566C7.6523 9.77571 7.636 9.77576 7.6192 9.77582C7.53225 9.7761 7.44531 9.77627 7.35836 9.77635C7.28788 9.77643 7.21741 9.77668 7.14693 9.77711C6.02744 9.7838 4.92245 9.65965 3.8548 9.3078C3.83308 9.30068 3.81136 9.29356 3.78898 9.28623C3.65659 9.24149 3.52805 9.19065 3.39949 9.13598C3.38325 9.12911 3.36701 9.12224 3.35029 9.11516C3.31064 9.09838 3.27101 9.08156 3.23138 9.06471C3.22585 8.43458 3.22158 7.80445 3.21903 7.1743C3.21873 7.09988 3.21842 7.02546 3.2181 6.95103C3.21803 6.93622 3.21797 6.9214 3.2179 6.90614C3.21685 6.66635 3.21494 6.42657 3.21272 6.18679C3.21046 5.94069 3.20911 5.69459 3.20862 5.44848C3.20829 5.29665 3.20724 5.14485 3.20528 4.99303C3.20385 4.87654 3.2037 4.76009 3.20402 4.64359C3.20395 4.59585 3.20347 4.54812 3.20255 4.50039C3.19604 4.14848 3.19604 4.14848 3.25497 4.06093C3.31844 3.99753 3.39158 3.96451 3.47331 3.92848C3.50467 3.90581 3.53547 3.8823 3.56519 3.85753C3.57995 3.84546 3.5947 3.8334 3.6099 3.82096C3.62624 3.80731 3.64257 3.79366 3.6594 3.7796C3.66941 3.77127 3.67942 3.76295 3.68973 3.75437C4.16299 3.3593 4.61729 2.85206 4.70154 2.2164C4.71211 2.0853 4.71587 1.95362 4.72069 1.82221C4.74613 1.15116 4.74613 1.15116 4.9487 0.941137C5.21401 0.71381 5.64226 0.847278 5.90767 1.00213Z" fill="white"/>
<path d="M0.965373 3.70191C0.98843 3.70167 1.01149 3.70143 1.03524 3.70118C1.06031 3.70103 1.08537 3.70089 1.11043 3.70077C1.12319 3.70069 1.13594 3.70061 1.14908 3.70054C1.21669 3.70015 1.28429 3.69988 1.3519 3.69971C1.42108 3.6995 1.49024 3.69886 1.55941 3.69812C1.61316 3.69763 1.6669 3.69748 1.72065 3.69741C1.75834 3.69728 1.79603 3.69679 1.83372 3.69629C2.06925 3.69683 2.27819 3.74009 2.44974 3.90991C2.59587 4.06751 2.6472 4.24026 2.64529 4.45181C2.6454 4.47182 2.64552 4.49184 2.64564 4.51246C2.64593 4.57909 2.6457 4.6457 2.64547 4.71233C2.64557 4.76028 2.6457 4.80822 2.64586 4.85617C2.64619 4.97261 2.64612 5.08905 2.64591 5.20549C2.64574 5.30018 2.64571 5.39486 2.6458 5.48954C2.64581 5.50305 2.64582 5.51655 2.64583 5.53047C2.64585 5.55791 2.64588 5.58534 2.6459 5.61278C2.64611 5.86974 2.64587 6.1267 2.64547 6.38366C2.64514 6.60387 2.6452 6.82408 2.64554 7.0443C2.64594 7.30037 2.64609 7.55644 2.64587 7.81252C2.64584 7.83985 2.64582 7.86719 2.6458 7.89452C2.64578 7.91469 2.64578 7.91469 2.64576 7.93527C2.6457 8.02978 2.6458 8.12429 2.64598 8.21879C2.64621 8.34613 2.64605 8.47345 2.64562 8.60078C2.64552 8.64746 2.64555 8.69413 2.64571 8.74081C2.64591 8.80463 2.64566 8.86843 2.64529 8.93225C2.64545 8.95063 2.64562 8.969 2.64579 8.98794C2.64346 9.19566 2.56219 9.35739 2.4195 9.50556C2.28744 9.62784 2.13382 9.68066 1.95618 9.68216C1.94416 9.68228 1.93213 9.6824 1.91974 9.68253C1.88005 9.6829 1.84035 9.68311 1.80066 9.6833C1.7802 9.68341 1.7802 9.68341 1.75933 9.68353C1.68706 9.68392 1.61479 9.68418 1.54252 9.68436C1.46835 9.68456 1.3942 9.6852 1.32004 9.68594C1.26261 9.68643 1.20518 9.68659 1.14775 9.68665C1.12044 9.68674 1.09313 9.68696 1.06582 9.6873C0.830996 9.69011 0.636194 9.65561 0.458517 9.49277C0.351069 9.38682 0.260658 9.25347 0.251394 9.09882C0.25135 9.0841 0.251307 9.06938 0.251262 9.05422C0.251168 9.03716 0.251073 9.0201 0.250976 9.00252C0.250967 8.98385 0.250957 8.96517 0.250948 8.94593C0.250866 8.92604 0.250785 8.90615 0.250701 8.88565C0.250452 8.81877 0.250337 8.75188 0.250223 8.685C0.250076 8.63713 0.249922 8.58926 0.249762 8.5414C0.249305 8.39757 0.249033 8.25375 0.248793 8.10992C0.248724 8.06928 0.24865 8.02863 0.248574 7.98798C0.248104 7.7354 0.247694 7.48281 0.247463 7.23023C0.247408 7.17174 0.247353 7.11325 0.247297 7.05476C0.247283 7.04023 0.247269 7.02569 0.247255 7.01071C0.247019 6.77543 0.246401 6.54014 0.245626 6.30485C0.244835 6.0631 0.244397 5.82135 0.2443 5.57959C0.244237 5.44393 0.24402 5.30828 0.243405 5.17262C0.242828 5.04492 0.242728 4.91723 0.242947 4.78954C0.242951 4.74275 0.242797 4.69597 0.24247 4.64919C0.238918 4.11212 0.238918 4.11212 0.448921 3.8921C0.599002 3.77021 0.772389 3.70365 0.965373 3.70191Z" fill="white"/>
</g>
<defs>
<clipPath id="clip0_6_90">
<rect width="9.52809" height="9.52809" fill="white" transform="translate(0.253906 0.541565)"/>
</clipPath>
</defs>
</svg>
