<svg width="10" height="10" viewBox="0 0 10 10" fill="none" xmlns="http://www.w3.org/2000/svg">
<g clip-path="url(#clip0_100_5)">
<path d="M5.65376 0.460562C5.76432 0.532731 5.86165 0.613951 5.95501 0.707138C5.96662 0.718533 5.97823 0.729928 5.99019 0.741668C6.30023 1.06917 6.37221 1.50688 6.37023 1.94002C6.37017 1.96356 6.37017 1.96356 6.37011 1.98757C6.36823 2.44656 6.30485 2.88561 6.14843 3.31923C6.14414 3.33117 6.13984 3.34311 6.13542 3.35541C6.12493 3.38453 6.11441 3.41364 6.10388 3.44274C6.1399 3.44291 6.1399 3.44291 6.17664 3.44307C6.40412 3.44414 6.6316 3.4455 6.85908 3.44713C6.976 3.44796 7.09292 3.44869 7.20984 3.44919C7.3229 3.44968 7.43596 3.45043 7.54902 3.45136C7.59192 3.45167 7.63482 3.45189 7.67773 3.452C8.2233 3.45364 8.68475 3.54666 9.09021 3.93306C9.42218 4.28145 9.54071 4.69149 9.53473 5.16107C9.52675 5.40633 9.48017 5.6474 9.43716 5.88845C9.42414 5.96186 9.41156 6.03534 9.39892 6.10882C9.37768 6.23184 9.35614 6.35481 9.33438 6.47774C9.30938 6.61903 9.28481 6.7604 9.26049 6.90181C9.23686 7.03923 9.21297 7.1766 9.18895 7.31395C9.17883 7.37183 9.16879 7.42972 9.1588 7.48763C9.14701 7.55587 9.135 7.62407 9.12283 7.69225C9.11638 7.72863 9.11014 7.76506 9.1039 7.80148C9.02099 8.26071 8.82398 8.67737 8.43364 8.95066C8.24131 9.07283 8.05807 9.16059 7.83457 9.2117C7.82101 9.21498 7.80745 9.21825 7.79348 9.22162C7.7283 9.23252 7.66426 9.23321 7.59839 9.23331C7.58424 9.2334 7.57008 9.23349 7.5555 9.23359C7.50856 9.23386 7.46163 9.23399 7.41469 9.23409C7.39839 9.23414 7.38209 9.2342 7.36529 9.23425C7.27835 9.23453 7.1914 9.2347 7.10445 9.23478C7.03398 9.23486 6.9635 9.23512 6.89303 9.23554C5.77353 9.24223 4.66854 9.11808 3.6009 8.76624C3.57918 8.75912 3.55745 8.752 3.53507 8.74466C3.40268 8.69993 3.27414 8.64909 3.14558 8.59442C3.12935 8.58755 3.11311 8.58068 3.09638 8.5736C3.05673 8.55681 3.0171 8.53999 2.97748 8.52315C2.97194 7.89301 2.96768 7.26289 2.96512 6.63273C2.96482 6.55831 2.96451 6.48389 2.96419 6.40947C2.96413 6.39465 2.96406 6.37984 2.964 6.36457C2.96294 6.12478 2.96104 5.88501 2.95881 5.64522C2.95655 5.39912 2.95521 5.15303 2.95472 4.90691C2.95438 4.75508 2.95334 4.60329 2.95137 4.45147C2.94994 4.33498 2.94979 4.21852 2.95012 4.10203C2.95005 4.05429 2.94957 4.00655 2.94864 3.95882C2.94214 3.60691 2.94214 3.60691 3.00106 3.51936C3.06453 3.45597 3.13767 3.42295 3.2194 3.38691C3.25076 3.36424 3.28156 3.34074 3.31129 3.31596C3.32604 3.3039 3.34079 3.29183 3.35599 3.2794C3.37233 3.26575 3.38867 3.2521 3.4055 3.23804C3.4155 3.22971 3.42551 3.22138 3.43582 3.2128C3.90909 2.81773 4.36339 2.31049 4.44763 1.67483C4.45821 1.54373 4.46196 1.41205 4.46678 1.28064C4.49222 0.609591 4.49222 0.609591 4.69479 0.399572C4.96011 0.172245 5.38835 0.305713 5.65376 0.460562Z" fill="#536AF5"/>
<path d="M0.711467 3.16034C0.734524 3.1601 0.757581 3.15986 0.781336 3.15962C0.8064 3.15947 0.831463 3.15933 0.856527 3.1592C0.869279 3.15912 0.882032 3.15905 0.895171 3.15897C0.962779 3.15858 1.03039 3.15832 1.098 3.15814C1.16717 3.15794 1.23634 3.1573 1.30551 3.15656C1.35925 3.15607 1.41299 3.15591 1.46674 3.15585C1.50443 3.15572 1.54212 3.15523 1.57981 3.15472C1.81535 3.15527 2.02428 3.19852 2.19583 3.36834C2.34197 3.52594 2.39329 3.6987 2.39138 3.91025C2.3915 3.93026 2.39161 3.95027 2.39173 3.97089C2.39203 4.03752 2.39179 4.10414 2.39156 4.17077C2.39166 4.21871 2.39179 4.26666 2.39196 4.3146C2.39229 4.43105 2.39222 4.54749 2.392 4.66393C2.39183 4.75861 2.39181 4.8533 2.39189 4.94798C2.3919 4.96148 2.39191 4.97499 2.39192 4.9889C2.39195 5.01634 2.39197 5.04378 2.392 5.07122C2.39221 5.32818 2.39196 5.58513 2.39156 5.84209C2.39123 6.06231 2.39129 6.28252 2.39163 6.50273C2.39203 6.75881 2.39219 7.01488 2.39196 7.27095C2.39194 7.29829 2.39191 7.32562 2.39189 7.35296C2.39187 7.37313 2.39187 7.37313 2.39185 7.39371C2.39179 7.48821 2.3919 7.58272 2.39207 7.67723C2.3923 7.80456 2.39214 7.93189 2.39171 8.05922C2.39161 8.10589 2.39164 8.15257 2.3918 8.19925C2.39201 8.26307 2.39175 8.32687 2.39138 8.39069C2.39155 8.40906 2.39171 8.42744 2.39188 8.44637C2.38955 8.6541 2.30828 8.81582 2.16559 8.964C2.03353 9.08628 1.87992 9.13909 1.70228 9.14059C1.69025 9.14072 1.67823 9.14084 1.66584 9.14097C1.62614 9.14133 1.58645 9.14155 1.54675 9.14173C1.5263 9.14185 1.5263 9.14185 1.50543 9.14196C1.43316 9.14235 1.36088 9.14262 1.28861 9.14279C1.21445 9.143 1.14029 9.14364 1.06613 9.14438C1.0087 9.14487 0.951272 9.14502 0.893839 9.14509C0.866531 9.14518 0.839223 9.14539 0.811917 9.14574C0.57709 9.14854 0.382288 9.11404 0.204611 8.9512C0.0971627 8.84525 0.00675145 8.7119 -0.00251269 8.55725C-0.00255606 8.54253 -0.0025994 8.52782 -0.00264409 8.51265C-0.00273852 8.49559 -0.00283302 8.47853 -0.00293032 8.46096C-0.00293958 8.44228 -0.00294882 8.42361 -0.00295836 8.40437C-0.00303991 8.38447 -0.00312145 8.36458 -0.00320548 8.34409C-0.00345468 8.2772 -0.00356963 8.21032 -0.00368359 8.14343C-0.00383062 8.09557 -0.0039845 8.0477 -0.00414474 7.99983C-0.00460078 7.85601 -0.00487328 7.71218 -0.00511354 7.56836C-0.00518265 7.52771 -0.00525659 7.48706 -0.00533226 7.44642C-0.00580198 7.19383 -0.00621222 6.94125 -0.00644375 6.68866C-0.00649827 6.63018 -0.00655342 6.57169 -0.00660951 6.5132C-0.00662339 6.49866 -0.0066373 6.48413 -0.00665161 6.46915C-0.0068869 6.23386 -0.00750491 5.99857 -0.00828068 5.76329C-0.0090712 5.52153 -0.0095088 5.27978 -0.00960592 5.03803C-0.00966933 4.90237 -0.00988665 4.76671 -0.0105011 4.63105C-0.0110785 4.50336 -0.0111782 4.37567 -0.0109592 4.24797C-0.0109551 4.20119 -0.0111093 4.15441 -0.0114366 4.10763C-0.0149883 3.57055 -0.0149883 3.57055 0.195015 3.35053C0.345096 3.22865 0.518483 3.16209 0.711467 3.16034Z" fill="#536AF5"/>
</g>
<defs>
<clipPath id="clip0_100_5">
<rect width="9.52809" height="9.52809" fill="white"/>
</clipPath>
</defs>
</svg>
