<svg width="22" height="22" viewBox="0 0 22 22" fill="none" xmlns="http://www.w3.org/2000/svg">
<path d="M4.72516 9.86616C4.80885 9.86581 4.80885 9.86581 4.89422 9.86546C5.04841 9.86484 5.20259 9.86502 5.35678 9.86534C5.52333 9.86554 5.68987 9.865 5.85642 9.86456C6.18245 9.86382 6.50848 9.86379 6.83451 9.86401C7.09957 9.86419 7.36463 9.86412 7.62969 9.8639C7.68632 9.86385 7.68632 9.86385 7.74409 9.8638C7.82079 9.86373 7.89749 9.86367 7.97419 9.8636C8.69317 9.86301 9.41214 9.86324 10.1311 9.86374C10.7885 9.86416 11.4459 9.86361 12.1033 9.86258C12.7787 9.86153 13.4541 9.86112 14.1295 9.8614C14.5085 9.86155 14.8876 9.86146 15.2666 9.86071C15.5893 9.86007 15.9119 9.86005 16.2346 9.86079C16.3991 9.86116 16.5637 9.86125 16.7282 9.86059C16.9068 9.85989 17.0853 9.86052 17.2639 9.86128C17.3156 9.86087 17.3673 9.86046 17.4205 9.86003C17.7791 9.86317 18.0846 9.91903 18.3744 10.141C18.6329 10.4423 18.7527 10.7118 18.7317 11.1128C18.6833 11.4705 18.5466 11.6849 18.2785 11.922C17.9539 12.1315 17.6508 12.1357 17.2749 12.1339C17.2191 12.1341 17.1633 12.1343 17.1058 12.1346C16.9516 12.1352 16.7974 12.135 16.6432 12.1347C16.4767 12.1345 16.3101 12.135 16.1436 12.1354C15.8176 12.1362 15.4915 12.1362 15.1655 12.136C14.9004 12.1358 14.6354 12.1359 14.3703 12.1361C14.3137 12.1362 14.3137 12.1362 14.2559 12.1362C14.1792 12.1363 14.1025 12.1363 14.0258 12.1364C13.3069 12.137 12.5879 12.1368 11.8689 12.1363C11.2115 12.1358 10.5541 12.1364 9.89676 12.1374C9.22134 12.1385 8.54593 12.1389 7.87051 12.1386C7.49148 12.1385 7.11246 12.1386 6.73343 12.1393C6.41076 12.1399 6.08809 12.14 5.76542 12.1392C5.60089 12.1389 5.43637 12.1388 5.27183 12.1394C5.09324 12.1401 4.91467 12.1395 4.73608 12.1387C4.6844 12.1391 4.63272 12.1396 4.57947 12.14C4.22093 12.1368 3.91539 12.081 3.62566 11.859C3.36714 11.5577 3.24727 11.2882 3.26832 10.8872C3.31668 10.5295 3.45341 10.3151 3.72151 10.078C4.04609 9.86853 4.34917 9.86429 4.72516 9.86616Z" fill="white"/>
<path d="M4.72516 4.36616C4.80885 4.36581 4.80885 4.36581 4.89422 4.36546C5.04841 4.36484 5.20259 4.36502 5.35678 4.36534C5.52333 4.36554 5.68987 4.365 5.85642 4.36456C6.18245 4.36382 6.50848 4.36379 6.83451 4.36401C7.09957 4.36419 7.36463 4.36412 7.62969 4.3639C7.68632 4.36385 7.68632 4.36385 7.74409 4.3638C7.82079 4.36373 7.89749 4.36367 7.97419 4.3636C8.69317 4.36301 9.41214 4.36324 10.1311 4.36374C10.7885 4.36416 11.4459 4.36361 12.1033 4.36258C12.7787 4.36153 13.4541 4.36112 14.1295 4.3614C14.5085 4.36155 14.8876 4.36146 15.2666 4.36071C15.5893 4.36007 15.9119 4.36005 16.2346 4.36079C16.3991 4.36116 16.5637 4.36125 16.7282 4.36059C16.9068 4.35989 17.0853 4.36052 17.2639 4.36128C17.3156 4.36087 17.3673 4.36046 17.4205 4.36003C17.7791 4.36317 18.0846 4.41903 18.3744 4.64097C18.6329 4.9423 18.7527 5.2118 18.7317 5.6128C18.6833 5.97049 18.5466 6.18487 18.2785 6.42199C17.9539 6.63148 17.6508 6.63572 17.2749 6.63385C17.2191 6.63408 17.1633 6.63431 17.1058 6.63455C16.9516 6.63517 16.7974 6.63499 16.6432 6.63467C16.4767 6.63447 16.3101 6.63501 16.1436 6.63545C15.8176 6.63619 15.4915 6.63622 15.1655 6.636C14.9004 6.63582 14.6354 6.63589 14.3703 6.63612C14.3137 6.63616 14.3137 6.63616 14.2559 6.63621C14.1792 6.63628 14.1025 6.63634 14.0258 6.63641C13.3069 6.637 12.5879 6.63677 11.8689 6.63627C11.2115 6.63585 10.5541 6.6364 9.89676 6.63743C9.22134 6.63848 8.54593 6.63889 7.87051 6.63861C7.49148 6.63846 7.11246 6.63855 6.73343 6.63931C6.41076 6.63994 6.08809 6.63996 5.76542 6.63922C5.60089 6.63885 5.43637 6.63876 5.27183 6.63942C5.09324 6.64012 4.91467 6.63949 4.73608 6.63873C4.6844 6.63914 4.63272 6.63955 4.57947 6.63998C4.22093 6.63685 3.91539 6.58098 3.62566 6.35904C3.36714 6.05771 3.24727 5.78822 3.26832 5.38721C3.31668 5.02952 3.45341 4.81514 3.72151 4.57802C4.04609 4.36853 4.34917 4.36429 4.72516 4.36616Z" fill="white"/>
<path d="M11.024 15.3765C11.0671 15.3763 11.0671 15.3763 11.1111 15.376C11.2077 15.3755 11.3043 15.3754 11.4008 15.3752C11.47 15.3749 11.5392 15.3747 11.6084 15.3743C11.8358 15.3734 12.0632 15.373 12.2906 15.3726C12.3689 15.3724 12.4473 15.3722 12.5256 15.372C12.8939 15.3712 13.2621 15.3706 13.6303 15.3703C14.0549 15.3698 14.4795 15.3687 14.9042 15.367C15.2326 15.3657 15.561 15.365 15.8895 15.3649C16.0855 15.3648 16.2815 15.3644 16.4775 15.3633C16.6622 15.3623 16.8468 15.3621 17.0314 15.3626C17.0989 15.3626 17.1665 15.3623 17.234 15.3617C17.656 15.3583 18.0279 15.3756 18.3744 15.641C18.6329 15.9423 18.7527 16.2118 18.7317 16.6128C18.6833 16.9705 18.5466 17.1849 18.2785 17.422C17.9214 17.6524 17.5581 17.6359 17.1483 17.6345C17.0791 17.6348 17.0098 17.6351 16.9405 17.6354C16.7531 17.6362 16.5657 17.6362 16.3783 17.6359C16.2215 17.6358 16.0648 17.636 15.908 17.6363C15.5381 17.6369 15.1682 17.6368 14.7982 17.6364C14.4172 17.6359 14.0362 17.6365 13.6552 17.6376C13.3275 17.6386 12.9997 17.6389 12.672 17.6386C12.4765 17.6385 12.2811 17.6386 12.0856 17.6393C11.9017 17.64 11.7179 17.6398 11.534 17.639C11.4668 17.6388 11.3995 17.639 11.3322 17.6394C10.9071 17.642 10.6015 17.5963 10.2373 17.3728C9.95988 17.0877 9.86728 16.766 9.87057 16.3773C9.89595 16.0974 10.0252 15.8365 10.2266 15.6406C10.4936 15.4697 10.7039 15.3776 11.024 15.3765Z" fill="white"/>
</svg>
