<svg width="21" height="21" viewBox="0 0 21 21" fill="none" xmlns="http://www.w3.org/2000/svg">
<path d="M18.8738 2.31894C19.1976 2.58397 19.3566 2.8764 19.4123 3.2865C19.427 3.51425 19.3761 3.71559 19.31 3.93183C19.3008 3.96246 19.2917 3.99309 19.2822 4.02465C19.188 4.33582 19.0867 4.64457 18.9837 4.95292C18.9632 5.01464 18.9427 5.07636 18.9222 5.13809C18.8666 5.30551 18.8108 5.47288 18.755 5.64025C18.6946 5.82159 18.6343 6.00297 18.574 6.18435C18.4425 6.57969 18.3109 6.97498 18.1792 7.37025C18.0969 7.6173 18.0146 7.86437 17.9324 8.11144C17.7043 8.79643 17.4762 9.48141 17.2479 10.1663C17.2334 10.21 17.2188 10.2538 17.2038 10.2988C17.1743 10.3874 17.1447 10.476 17.1152 10.5646C17.1006 10.6085 17.0859 10.6525 17.0708 10.6978C17.0488 10.7638 17.0488 10.7638 17.0264 10.8312C16.7882 11.5457 16.5504 12.2603 16.3127 12.975C16.0682 13.7099 15.8236 14.4447 15.5786 15.1795C15.4413 15.5916 15.304 16.0037 15.167 16.4159C15.0505 16.7665 14.9337 17.1171 14.8167 17.4675C14.7571 17.6462 14.6975 17.8249 14.6382 18.0037C14.5839 18.1676 14.5292 18.3313 14.4744 18.495C14.4547 18.554 14.4351 18.6131 14.4155 18.6722C14.0676 19.7257 14.0676 19.7257 13.5788 19.9874C13.2014 20.1568 12.8438 20.1891 12.449 20.0577C11.909 19.8372 11.6839 19.3708 11.4331 18.8718C11.3666 18.7394 11.299 18.6075 11.2315 18.4756C11.218 18.4492 11.2046 18.4229 11.1907 18.3957C11.074 18.1678 10.9521 17.9428 10.8282 17.7187C10.6236 17.3478 10.4284 16.9723 10.2348 16.5955C10.0491 16.2345 9.85855 15.8766 9.66239 15.5211C9.45706 15.1472 9.26213 14.7681 9.06758 14.3885C9.04289 14.3404 9.0182 14.2923 8.99276 14.2428C8.96976 14.1978 8.94676 14.1527 8.92307 14.1063C8.87045 14.007 8.81452 13.913 8.75436 13.8182C8.7349 13.7789 8.71544 13.7397 8.6954 13.6992C8.7439 13.5597 8.83148 13.4711 8.93494 13.3683C8.96778 13.3355 9.00062 13.3026 9.03446 13.2688C9.08857 13.2153 9.08857 13.2153 9.14378 13.1608C9.20203 13.1027 9.26028 13.0446 9.31853 12.9866C9.3811 12.9243 9.44377 12.8621 9.50646 12.7999C9.63713 12.6704 9.76748 12.5405 9.89779 12.4106C10.1744 12.1349 10.4513 11.8596 10.7282 11.5843C11.0274 11.287 11.3264 10.9896 11.6251 10.6918C11.7547 10.5626 11.8845 10.4336 12.0145 10.3048C12.0757 10.244 12.1369 10.1831 12.1981 10.1221C12.2727 10.0477 12.3475 9.97346 12.4224 9.89939C12.4552 9.86668 12.4879 9.83396 12.5216 9.80025C12.5645 9.75764 12.5645 9.75764 12.6082 9.71417C12.7383 9.56455 12.7288 9.39704 12.7263 9.20829C12.7093 9.05429 12.6552 8.97192 12.5509 8.85933C12.3701 8.73606 12.191 8.6961 11.9766 8.73629C11.7122 8.83588 11.5405 9.03302 11.3449 9.23099C11.3069 9.26901 11.2689 9.30703 11.2297 9.34621C11.1258 9.45007 11.0222 9.55431 10.9188 9.65862C10.8105 9.76772 10.7018 9.87647 10.5931 9.98526C10.3876 10.1911 10.1825 10.3973 9.9774 10.6036C9.74385 10.8386 9.50995 11.0731 9.27602 11.3077C8.79498 11.79 8.31438 12.2728 7.83407 12.7558C7.67842 12.705 7.53433 12.6516 7.38931 12.5754C7.35221 12.556 7.31511 12.5366 7.27689 12.5166C7.23743 12.4957 7.19797 12.4749 7.15731 12.4533C7.11558 12.4314 7.07384 12.4095 7.03084 12.3869C6.71836 12.2221 6.40841 12.053 6.09892 11.8827C5.75905 11.6967 5.41493 11.5192 5.07033 11.3421C4.70902 11.1563 4.35089 10.9656 3.99518 10.7693C3.63004 10.5687 3.25963 10.3785 2.88848 10.1893C2.64114 10.0626 2.39568 9.93307 2.15341 9.79693C2.08552 9.75884 2.08552 9.75884 2.01626 9.71998C1.68962 9.51472 1.46491 9.27221 1.35809 8.8941C1.27708 8.4574 1.33117 8.11377 1.55371 7.73076C1.87795 7.35099 2.28285 7.22882 2.74214 7.08062C2.81659 7.05599 2.89101 7.03128 2.96541 7.00651C3.12465 6.9536 3.28401 6.90112 3.44349 6.84895C3.69067 6.76799 3.93737 6.68561 4.18397 6.60289C4.67354 6.43878 5.16344 6.27564 5.65338 6.11264C5.8996 6.0307 6.14579 5.94869 6.39198 5.86668C6.80457 5.72925 7.21716 5.59185 7.62977 5.4545C7.65568 5.44587 7.68158 5.43725 7.70827 5.42837C7.89205 5.36719 8.07583 5.30601 8.25961 5.24483C8.46999 5.1748 8.68038 5.10476 8.89076 5.03473C8.92968 5.02177 8.92968 5.02177 8.96938 5.00856C9.40647 4.86305 9.84355 4.71749 10.2806 4.57189C10.5238 4.49088 10.767 4.40989 11.0103 4.32897C11.9378 4.0204 12.8651 3.71161 13.7891 3.39264C14.1733 3.25999 14.5588 3.13165 14.946 3.00794C15.4111 2.85931 15.8749 2.70758 16.3365 2.54854C16.3747 2.53539 16.4129 2.52224 16.4522 2.5087C16.6364 2.44522 16.8204 2.38138 17.0042 2.31704C17.6468 2.09353 18.2665 1.88625 18.8738 2.31894Z" fill="white"/>
</svg>
