<svg width="23" height="23" viewBox="0 0 23 23" fill="none" xmlns="http://www.w3.org/2000/svg">
<g clip-path="url(#clip0_5_73)">
<path d="M16.7092 2.19096C16.9657 2.37906 17.1846 2.60502 17.4081 2.83021C17.4625 2.88437 17.5169 2.93849 17.5714 2.99258C17.7181 3.13845 17.8642 3.28487 18.0102 3.43143C18.1637 3.58543 18.3177 3.73899 18.4716 3.89262C18.7299 4.15059 18.9878 4.40893 19.2455 4.66749C19.5426 4.96553 19.8403 5.26293 20.1384 5.55999C20.3952 5.81601 20.6517 6.07237 20.9079 6.32902C21.0605 6.4819 21.2132 6.63465 21.3662 6.78709C21.5101 6.93049 21.6536 7.07432 21.7967 7.2185C21.849 7.27104 21.9015 7.32343 21.9541 7.37565C22.5442 7.96168 23.0029 8.61247 23.017 9.4702C23.0154 10.3015 22.8351 10.9401 22.2489 11.5597C22.2221 11.5882 22.1953 11.6167 22.1677 11.6461C21.7366 12.1009 21.2913 12.5422 20.8483 12.9854C20.7692 13.0644 20.6902 13.1435 20.6112 13.2226C20.3347 13.4996 20.0581 13.7764 19.7813 14.0531C19.5248 14.3096 19.2685 14.5664 19.0123 14.8233C18.7908 15.0454 18.5691 15.2674 18.3473 15.4891C18.2154 15.621 18.0837 15.7528 17.9521 15.8849C17.8285 16.0089 17.7048 16.1326 17.5809 16.2562C17.5358 16.3013 17.4907 16.3464 17.4458 16.3916C16.4623 17.3808 16.4623 17.3808 15.7394 17.4016C15.3813 17.3979 15.1383 17.316 14.8679 17.081C14.5594 16.7595 14.4188 16.3446 14.4106 15.9035C14.4097 15.8604 14.4088 15.8172 14.4079 15.7727C14.4068 15.7037 14.4068 15.7037 14.4057 15.6333C14.4047 15.5858 14.4038 15.5383 14.4028 15.4893C14.3999 15.3378 14.3972 15.1863 14.3946 15.0348C14.3927 14.9319 14.3907 14.8291 14.3887 14.7262C14.3839 14.4744 14.3793 14.2225 14.3749 13.9707C10.442 14.2278 6.81506 15.5643 3.8183 18.1484C3.78611 18.1761 3.75391 18.2037 3.72074 18.2321C3.16766 18.7109 2.63082 19.208 2.15619 19.7656C2.11511 19.8129 2.07399 19.8601 2.03283 19.9072C1.98688 19.9601 1.94097 20.0131 1.89509 20.066C1.87189 20.0928 1.84869 20.1196 1.82479 20.1471C1.68846 20.3061 1.5607 20.4686 1.43749 20.6379C1.09676 21.1031 1.09676 21.1031 0.808538 21.1582C0.53838 21.1739 0.342824 21.112 0.13471 20.9336C0.00501974 20.7572 -0.0173147 20.6308 -0.0179543 20.4137C-0.018233 20.3555 -0.0185117 20.2974 -0.0187988 20.2375C-0.0182481 20.1747 -0.0176137 20.112 -0.0169015 20.0492C-0.0167074 20.0172 -0.0165133 19.9852 -0.0163134 19.9523C0.0119696 15.9618 1.84149 12.3244 4.60724 9.53467C4.64597 9.49535 4.68469 9.45604 4.72459 9.41554C4.9923 9.14748 5.27277 8.90431 5.57026 8.66992C5.60315 8.64382 5.63605 8.61773 5.66994 8.59085C6.36515 8.04367 7.08933 7.57401 7.86127 7.14258C7.89483 7.12358 7.92839 7.10459 7.96296 7.08502C9.78625 6.05872 12.0802 5.33453 14.188 5.34459C14.2535 5.34483 14.2535 5.34483 14.3203 5.34508C14.3696 5.34539 14.3696 5.34539 14.4199 5.3457C14.4194 5.30598 14.4194 5.30598 14.419 5.26546C14.416 4.98778 14.4139 4.7101 14.4125 4.4324C14.4118 4.32902 14.4109 4.22563 14.4097 4.12225C14.408 3.97293 14.4073 3.82362 14.4067 3.67429C14.406 3.62869 14.4053 3.5831 14.4046 3.53612C14.4045 3.04874 14.5132 2.58637 14.8242 2.20117C15.4208 1.67621 16.0885 1.78677 16.7092 2.19096Z" fill="white"/>
</g>
<defs>
<clipPath id="clip0_5_73">
<rect width="23" height="23" fill="white"/>
</clipPath>
</defs>
</svg>
